<?xml version="1.0" standalone="no"?>
<!DOCTYPE svg PUBLIC "-//W3C//DTD SVG 20010904//EN"
 "http://www.w3.org/TR/2001/REC-SVG-20010904/DTD/svg10.dtd">
<svg version="1.0" xmlns="http://www.w3.org/2000/svg"
 width="90.000000pt" height="90.000000pt" viewBox="0 0 90.000000 90.000000"
 preserveAspectRatio="xMidYMid meet">

<g transform="translate(0.000000,90.000000) scale(0.100000,-0.100000)"
fill="#000000" stroke="none">
<path d="M95 886 c-41 -18 -83 -69 -90 -109 -3 -18 -5 -177 -3 -354 3 -307 4
-323 24 -349 11 -15 33 -37 48 -48 27 -20 40 -21 376 -21 336 0 349 1 376 21
15 11 37 33 48 48 20 27 21 40 21 376 0 336 -1 349 -21 376 -11 15 -33 37 -48
48 -26 20 -42 21 -364 23 -265 2 -344 0 -367 -11z m454 -187 c58 -12 96 -50
106 -103 8 -39 -15 -99 -44 -117 -19 -13 -19 -14 10 -31 58 -35 76 -141 34
-204 -33 -51 -83 -64 -257 -64 l-158 0 0 258 c0 142 3 262 7 265 10 11 248 8
302 -4z"/>
<path d="M340 560 l0 -70 93 0 c108 0 127 11 127 73 0 54 -25 67 -132 67 l-88
0 0 -70z"/>
<path d="M340 341 l0 -81 103 0 c92 0 106 2 122 20 26 29 25 85 -3 113 -20 19
-35 22 -122 25 l-100 4 0 -81z"/>
</g>
</svg>
